<svg width="13" height="18" viewBox="0 0 13 18" fill="none" xmlns="http://www.w3.org/2000/svg">
<g clip-path="url(#clip0_1_296)">
<path d="M3.11159 17.5798C4.79791 17.5798 6.16653 16.3253 6.16653 14.7795V11.9792H3.11159C1.42526 11.9792 0.0566406 13.2338 0.0566406 14.7795C0.0566406 16.3253 1.42526 17.5798 3.11159 17.5798Z" fill="#0ACF83"/>
<path d="M0.0566406 9.17894C0.0566406 7.63319 1.42526 6.37866 3.11159 6.37866H6.16653V11.9792H3.11159C1.42526 11.9792 0.0566406 10.7247 0.0566406 9.17894Z" fill="#A259FF"/>
<path d="M0.0581665 3.57836C0.0581665 2.0326 1.42678 0.778076 3.11311 0.778076H6.16806V6.37864H3.11311C1.42678 6.37864 0.0581665 5.12411 0.0581665 3.57836Z" fill="#F24E1E"/>
<path d="M6.16653 0.778076H9.22148C10.9078 0.778076 12.2764 2.0326 12.2764 3.57836C12.2764 5.12411 10.9078 6.37864 9.22148 6.37864H6.16653V0.778076Z" fill="#FF7262"/>
<path d="M12.2764 9.17894C12.2764 10.7247 10.9078 11.9792 9.22148 11.9792C7.53515 11.9792 6.16653 10.7247 6.16653 9.17894C6.16653 7.63319 7.53515 6.37866 9.22148 6.37866C10.9078 6.37866 12.2764 7.63319 12.2764 9.17894Z" fill="#1ABCFE"/>
</g>
<defs>
<clipPath id="clip0_1_296">
<rect width="12.2222" height="16.8017" fill="white" transform="translate(0.055542 0.778076)"/>
</clipPath>
</defs>
</svg>
